<?xml version="1.0" encoding="UTF-8" standalone="no"?>
<!DOCTYPE svg PUBLIC "-//W3C//DTD SVG 1.1//EN" "http://www.w3.org/Graphics/SVG/1.1/DTD/svg11.dtd">
<svg width="100%" height="100%" viewBox="0 0 1743 1518" version="1.1" xmlns="http://www.w3.org/2000/svg" xmlns:xlink="http://www.w3.org/1999/xlink" xml:space="preserve" xmlns:serif="http://www.serif.com/" style="fill-rule:evenodd;clip-rule:evenodd;stroke-linecap:round;stroke-miterlimit:10;">
    <g transform="matrix(1,0,0,1,-171.667777,-328.542083)">
        <g transform="matrix(4.166667,0,0,4.166667,0,0)">
            <g id="OBJECTS">
                <g transform="matrix(1,0,0,1,320.1445,386.4954)">
                    <path d="M0,-37.18L0,-4.817C0,-2.157 2.357,0 5.265,0L23.646,0" style="fill:none;fill-rule:nonzero;stroke:rgb(192,164,252);stroke-width:2px;"/>
                </g>
                <g transform="matrix(1,0,0,1,276.7793,299.3153)">
                    <path d="M0,-39.409L0,-4.561C0,-2.042 2.043,0 4.562,0L55.651,0" style="fill:none;fill-rule:nonzero;stroke:rgb(192,164,252);stroke-width:2px;"/>
                </g>
                <g transform="matrix(1,0,0,1,248.6294,319.23)">
                    <path d="M0,-67.523L0,-42.423C0,-39.497 -2.373,-37.124 -5.3,-37.124L-122.792,-37.124C-127.024,-37.124 -130.456,-33.692 -130.456,-29.46L-130.456,0" style="fill:none;fill-rule:nonzero;stroke:rgb(192,164,252);stroke-width:2px;"/>
                </g>
                <g transform="matrix(1,0,0,1,0,-322.2)">
                    <rect x="320.935" y="407.159" width="9.73" height="7.882" style="fill:rgb(23,186,87);"/>
                </g>
                <g transform="matrix(-1,0,0,1,703.705,-322.201)">
                    <rect x="339.14" y="407.16" width="25.425" height="7.881" style="fill:rgb(23,186,87);"/>
                </g>
                <g transform="matrix(-1,0,0,1,805.406,-322.201)">
                    <rect x="386.813" y="407.16" width="31.78" height="7.881" style="fill:rgb(23,186,87);"/>
                </g>
                <g transform="matrix(1,0,0,1,0,-322.199)">
                    <rect x="426.009" y="407.159" width="22.247" height="7.881" style="fill:rgb(23,186,87);"/>
                </g>
                <g transform="matrix(1,0,0,1,0,-294.176)">
                    <rect x="359.269" y="393.147" width="14.831" height="7.882" style="fill:rgb(23,186,87);"/>
                </g>
                <g transform="matrix(1,0,0,1,0,-294.176)">
                    <rect x="320.935" y="393.147" width="28.8" height="7.882" style="fill:rgb(23,186,87);"/>
                </g>
                <g transform="matrix(1,0,0,1,0,-294.176)">
                    <rect x="415.415" y="393.147" width="25.425" height="7.882" style="fill:rgb(23,186,87);"/>
                </g>
                <g transform="matrix(1,0,0,1,449.8203,111.0236)">
                    <path d="M0,-30.255C3.112,-30.255 5.635,-27.668 5.635,-24.478L5.635,-20.371C5.635,-18.839 6.228,-17.37 7.284,-16.286L8.979,-14.548L7.812,-13.352C6.756,-12.268 6.162,-10.799 6.162,-9.267L6.162,-5.777C6.162,-2.587 3.64,0 0.528,0L-0.4,0" style="fill:none;fill-rule:nonzero;stroke:rgb(1,50,31);stroke-width:1px;stroke-linejoin:round;"/>
                </g>
                <g transform="matrix(1,0,0,1,320.1514,111.0236)">
                    <path d="M0,-30.255C-3.112,-30.255 -5.635,-27.668 -5.635,-24.478L-5.635,-20.371C-5.635,-18.839 -6.228,-17.37 -7.284,-16.286L-8.979,-14.548L-7.812,-13.352C-6.756,-12.268 -6.162,-10.799 -6.162,-9.267L-6.162,-5.777C-6.162,-2.587 -3.64,0 -0.528,0L0.4,0" style="fill:none;fill-rule:nonzero;stroke:rgb(1,50,31);stroke-width:1px;stroke-linejoin:round;"/>
                </g>
                <g transform="matrix(0.490276,0.871567,0.871567,-0.490276,387.933472,84.825765)">
                    <path d="M-6.609,-11.3L19.322,-11.3" style="fill:none;fill-rule:nonzero;stroke:rgb(1,50,31);stroke-width:1px;stroke-linejoin:round;"/>
                </g>
                <g transform="matrix(1,0,0,1,343.0469,176.3671)">
                    <path d="M0,56.13C5.629,51.208 7.751,43.014 7.791,35.409C7.809,31.98 7.438,28.514 6.414,25.231C5.455,22.156 4.576,20.502 1.66,18.778C2.949,14.901 3.549,11.252 1.821,7.424C0.36,4.188 -2.448,1.494 -5.875,0.565L-5.863,0.723C-5.989,0.641 -6.116,0.562 -6.245,0.491C-6.294,-0.949 -6.618,-2.382 -7.241,-3.671C-8.047,-5.336 -9.259,-6.773 -10.695,-7.93C-12.396,-9.297 -14.417,-9.687 -16.482,-10.317C-16.805,-10.415 -17.132,-10.516 -17.412,-10.704C-17.82,-10.979 -18.087,-11.414 -18.365,-11.82C-20.157,-14.434 -22.963,-16.334 -26.056,-17.028C-26.38,-17.101 -26.725,-17.17 -26.971,-17.394C-27.201,-17.604 -27.304,-17.916 -27.414,-18.208C-28.589,-21.339 -31.631,-23.685 -34.958,-24.026C-35.216,-24.052 -35.491,-24.073 -35.697,-24.23C-35.862,-24.355 -35.957,-24.548 -36.051,-24.732C-37.673,-27.926 -40.409,-30.54 -43.674,-32.013C-46.939,-33.486 -50.71,-33.808 -54.178,-32.912C-54.771,-36.135 -56.979,-38.911 -59.756,-40.653C-62.545,-42.403 -65.667,-43.8 -68.986,-43.816C-72.543,-43.833 -75.165,-41.904 -77.758,-39.646C-77.662,-40.813 -78.276,-41.928 -79.029,-42.825C-80.717,-44.834 -83.221,-46.137 -85.835,-46.364C-88.449,-46.591 -91.14,-45.74 -93.148,-44.051L-93.124,-44.035C-93.153,-44.029 -93.184,-44.023 -93.214,-44.017C-93.28,-44.156 -93.343,-44.297 -93.439,-44.421C-93.824,-44.916 -94.41,-45.207 -94.984,-45.458C-104.724,-49.723 -117.142,-46.692 -123.821,-38.42C-127.543,-40.564 -132.182,-41.048 -136.267,-39.718C-140.352,-38.389 -143.817,-35.266 -145.564,-31.342C-146.122,-32.289 -147.299,-32.654 -148.383,-32.841C-153.411,-33.71 -158.783,-32.356 -162.797,-29.206C-166.812,-26.057 -169.406,-21.161 -169.758,-16.071C-175.693,-16.019 -181.524,-12.952 -184.93,-8.091C-186.381,-6.02 -187.393,-3.453 -187.119,-0.993C-188.272,-0.061 -189.26,0.994 -189.958,2.052C-191.542,4.455 -192.229,7.52 -191.461,10.33C-191.12,11.58 -190.439,12.672 -189.749,13.751C-195.446,15.059 -199.403,20.89 -199.675,26.737C-199.868,30.895 -198.486,34.952 -196.248,38.5L-196.355,38.437C-198.246,42.211 -198.256,46.871 -196.381,50.653C-194.507,54.434 -190.792,57.249 -186.644,58.029C-184.18,58.492 -181.544,58.243 -179.325,57.081C-179.293,57.087 -179.262,57.088 -179.231,57.094C-178.347,61.106 -175.239,64.276 -171.254,65.287C-168.817,65.904 -166.251,65.683 -163.763,65.326C-160.294,64.828 -156.764,64.032 -153.871,62.054C-153.65,61.902 -153.435,61.742 -153.225,61.574C-153.044,61.71 -152.864,61.847 -152.684,61.984C-152.998,66.414 -150.995,70.948 -147.55,73.776C-143.692,76.942 -139.815,78.141 -134.997,76.884C-133.937,80.706 -130.923,83.83 -127.312,85.472C-123.701,87.114 -119.557,87.365 -115.653,86.661C-112.481,86.089 -109.083,84.58 -107.958,81.559C-105.595,83.294 -101.96,84.091 -99.109,83.485C-96.845,83.004 -94.679,80.943 -92.459,80.677C-91.571,80.57 -90.682,80.477 -89.794,80.376C-85.998,91.278 -73.677,96.459 -62.704,92.581C-57.327,99.825 -48.607,104.334 -39.619,105.094C-30.631,105.853 -21.483,102.994 -14.174,97.708C-7.226,92.684 -1.585,84.025 -4.136,75.838C3.661,72.811 6.805,61.958 1.101,55.84L0,56.13Z" style="fill:rgb(0,101,57);fill-rule:nonzero;"/>
                </g>
                <g transform="matrix(1,0,0,1,339.3525,170.4554)">
                    <path d="M0,56.13C5.629,51.209 7.751,43.014 7.791,35.41C7.809,31.981 7.438,28.514 6.414,25.231C5.455,22.157 4.576,20.502 1.659,18.778C2.948,14.902 3.549,11.252 1.821,7.425C0.36,4.189 -2.449,1.495 -5.876,0.565L-5.863,0.723C-5.989,0.641 -6.116,0.562 -6.245,0.491C-6.294,-0.949 -6.618,-2.382 -7.242,-3.671C-8.047,-5.336 -9.259,-6.773 -10.696,-7.929C-12.396,-9.297 -14.418,-9.687 -16.482,-10.316C-16.805,-10.414 -17.133,-10.516 -17.412,-10.704C-17.82,-10.979 -18.087,-11.413 -18.365,-11.82C-20.157,-14.433 -22.963,-16.333 -26.056,-17.028C-26.38,-17.101 -26.725,-17.17 -26.971,-17.394C-27.201,-17.604 -27.305,-17.915 -27.414,-18.208C-28.589,-21.339 -31.631,-23.684 -34.958,-24.025C-35.216,-24.052 -35.491,-24.073 -35.697,-24.23C-35.862,-24.355 -35.958,-24.548 -36.051,-24.732C-37.673,-27.926 -40.41,-30.539 -43.675,-32.013C-46.939,-33.486 -50.71,-33.808 -54.178,-32.911C-54.771,-36.135 -56.979,-38.911 -59.756,-40.653C-62.545,-42.402 -65.667,-43.799 -68.986,-43.816C-72.544,-43.833 -75.166,-41.904 -77.758,-39.646C-77.663,-40.813 -78.277,-41.927 -79.03,-42.824C-80.717,-44.834 -83.221,-46.137 -85.835,-46.363C-88.449,-46.59 -91.14,-45.739 -93.148,-44.05L-93.124,-44.035C-93.154,-44.028 -93.184,-44.023 -93.214,-44.016C-93.28,-44.156 -93.343,-44.296 -93.439,-44.42C-93.824,-44.916 -94.41,-45.206 -94.985,-45.458C-104.724,-49.723 -117.142,-46.692 -123.821,-38.42C-127.543,-40.564 -132.183,-41.048 -136.267,-39.718C-140.352,-38.388 -143.817,-35.266 -145.564,-31.341C-146.123,-32.289 -147.299,-32.653 -148.383,-32.841C-153.411,-33.71 -158.783,-32.355 -162.798,-29.206C-166.812,-26.056 -169.407,-21.161 -169.759,-16.07C-175.694,-16.018 -181.525,-12.952 -184.93,-8.09C-186.381,-6.019 -187.394,-3.452 -187.119,-0.992C-188.273,-0.061 -189.26,0.994 -189.958,2.052C-191.542,4.455 -192.229,7.52 -191.461,10.33C-191.12,11.581 -190.439,12.673 -189.75,13.752C-195.446,15.06 -199.403,20.891 -199.675,26.737C-199.869,30.896 -198.486,34.952 -196.249,38.501L-196.355,38.437C-198.246,42.211 -198.256,46.871 -196.382,50.653C-194.507,54.435 -190.792,57.249 -186.644,58.029C-184.181,58.493 -181.545,58.244 -179.325,57.082C-179.294,57.087 -179.263,57.088 -179.231,57.094C-178.347,61.106 -175.239,64.277 -171.254,65.287C-168.818,65.905 -166.251,65.683 -163.764,65.326C-160.294,64.828 -156.764,64.033 -153.871,62.054C-153.65,61.903 -153.435,61.742 -153.225,61.575C-153.044,61.71 -152.865,61.847 -152.685,61.984C-152.998,66.414 -150.995,70.949 -147.55,73.776C-143.692,76.943 -139.815,78.141 -134.997,76.884C-133.937,80.707 -130.923,83.831 -127.312,85.472C-123.701,87.114 -119.557,87.366 -115.653,86.662C-112.481,86.089 -109.083,84.58 -107.958,81.559C-105.595,83.295 -101.96,84.091 -99.109,83.485C-96.846,83.005 -94.679,80.944 -92.459,80.677C-91.572,80.571 -90.683,80.477 -89.794,80.377C-85.999,91.278 -73.678,96.46 -62.704,92.582C-57.328,99.825 -48.607,104.335 -39.619,105.093C-30.631,105.853 -21.483,102.995 -14.174,97.709C-7.227,92.683 -1.586,84.025 -4.136,75.838C3.661,72.812 6.805,61.958 1.101,55.84L0,56.13Z" style="fill:none;fill-rule:nonzero;stroke:rgb(1,50,31);stroke-width:2px;stroke-linejoin:round;"/>
                </g>
                <g transform="matrix(-0.07642,0.997076,0.997076,0.07642,212.103846,226.584222)">
                    <path d="M-11.747,-10.881L10.079,-10.881" style="fill:none;fill-rule:nonzero;stroke:rgb(1,50,31);stroke-width:1px;stroke-linecap:butt;"/>
                </g>
                <g transform="matrix(1,0,0,1,231.0635,238.7944)">
                    <path d="M0,-37.228L-2.374,-19.264L1.33,0L-15.934,-7.534L-30.58,-2.992L-51.853,-18.614" style="fill:none;fill-rule:nonzero;stroke:rgb(1,50,31);stroke-width:1px;stroke-linecap:butt;"/>
                </g>
                <g transform="matrix(0.946091,0.323902,0.323902,-0.946091,250.230839,222.412375)">
                    <path d="M-0.789,-4.742L28.491,-4.742" style="fill:none;fill-rule:nonzero;stroke:rgb(1,50,31);stroke-width:1px;stroke-linecap:butt;"/>
                </g>
                <g transform="matrix(-0.133137,0.991098,0.991098,0.133137,306.809364,210.43085)">
                    <path d="M-16.707,-14.613L12.781,-14.613" style="fill:none;fill-rule:nonzero;stroke:rgb(1,50,31);stroke-width:1px;stroke-linecap:butt;"/>
                </g>
                <g transform="matrix(1,0,0,1,191.8413,197.4197)">
                    <path d="M0,1.82L10.311,16.62L30.58,-14.8" style="fill:none;fill-rule:nonzero;stroke:rgb(1,50,31);stroke-width:1px;stroke-linecap:butt;"/>
                </g>
                <g transform="matrix(1,0,0,1,210.4551,171.3179)">
                    <path d="M0,-13.295L10.304,0L43.544,-5.983L68.806,-8.309" style="fill:none;fill-rule:nonzero;stroke:rgb(1,50,31);stroke-width:1px;stroke-linecap:butt;"/>
                </g>
                <g transform="matrix(-0.956545,-0.291584,-0.291584,0.956545,242.54463,235.711475)">
                    <path d="M-54.707,8.153L1.215,8.153" style="fill:none;fill-rule:nonzero;stroke:rgb(1,50,31);stroke-width:1px;stroke-linecap:butt;"/>
                </g>
                <g transform="matrix(1,0,0,1,320.0742,237.4994)">
                    <path d="M0,8.61L-21.338,1.747L-45.131,0" style="fill:none;fill-rule:nonzero;stroke:rgb(1,50,31);stroke-width:1px;stroke-linecap:butt;"/>
                </g>
                <g transform="matrix(1,0,0,1,271.2832,221.1527)">
                    <path d="M0,-14.933L19.342,0L40.93,-0.125" style="fill:none;fill-rule:nonzero;stroke:rgb(1,50,31);stroke-width:1px;stroke-linecap:butt;"/>
                </g>
                <g transform="matrix(-0.347315,0.937748,0.937748,0.347315,314.465609,186.465042)">
                    <path d="M-19.363,-13.477L9.38,-13.477" style="fill:none;fill-rule:nonzero;stroke:rgb(1,50,31);stroke-width:1px;stroke-linecap:butt;"/>
                </g>
                <g transform="matrix(1,0,0,1,209.5142,148.1526)">
                    <path d="M0,6.614L44.465,14.475L27.952,-7.861" style="fill:none;fill-rule:nonzero;stroke:rgb(1,50,31);stroke-width:1px;stroke-linecap:butt;"/>
                </g>
                <g transform="matrix(1,0,0,1,190.1724,219.6548)">
                    <path d="M0,-23.085L-12.104,0L11.231,-5.366" style="fill:none;fill-rule:nonzero;stroke:rgb(1,50,31);stroke-width:1px;stroke-linecap:butt;"/>
                </g>
                <g transform="matrix(-0.290767,-0.956794,-0.956794,0.290767,328.881688,225.855142)">
                    <path d="M-17.171,12.728L9.435,12.728" style="fill:none;fill-rule:nonzero;stroke:rgb(1,50,31);stroke-width:1px;stroke-linecap:butt;"/>
                </g>
                <g transform="matrix(-0.359097,0.9333,0.9333,0.359097,203.388326,191.644557)">
                    <path d="M-13.847,-9.509L6.53,-9.509" style="fill:none;fill-rule:nonzero;stroke:rgb(1,50,31);stroke-width:1px;stroke-linecap:butt;"/>
                </g>
                <g transform="matrix(0.84729,-0.53113,-0.53113,-0.84729,198.043746,206.096491)">
                    <path d="M-3.014,10.482L36.457,10.482" style="fill:none;fill-rule:nonzero;stroke:rgb(1,50,31);stroke-width:1px;stroke-linecap:butt;"/>
                </g>
                <g transform="matrix(-0.882345,0.470602,0.470602,0.882345,236.988779,261.047593)">
                    <path d="M-79.422,24.723L-49.724,24.723L-47.111,-3.259L-4.596,-16.884L-25.861,-25.199" style="fill:none;fill-rule:nonzero;stroke:rgb(1,50,31);stroke-width:1px;stroke-linecap:butt;"/>
                </g>
                <g transform="matrix(1,0,0,1,257.0576,201.0624)">
                    <path d="M0,-37.935L-25.831,-1.123L7.237,0L0,-37.935Z" style="fill:none;fill-rule:nonzero;stroke:rgb(1,50,31);stroke-width:1px;stroke-linecap:butt;"/>
                </g>
                <g transform="matrix(1,0,0,1,295.9902,180.0979)">
                    <path d="M0,6.988C0,6.239 -14.226,-17.969 -14.226,-17.969L-29.449,24.957L0,6.988Z" style="fill:none;fill-rule:nonzero;stroke:rgb(1,50,31);stroke-width:1px;stroke-linecap:butt;"/>
                </g>
                <g transform="matrix(-0.445881,0.895092,0.895092,0.445881,177.112905,199.883049)">
                    <path d="M-26.91,-16.659L10.313,-16.659" style="fill:none;fill-rule:nonzero;stroke:rgb(1,50,31);stroke-width:1px;stroke-linecap:butt;"/>
                </g>
                <g transform="matrix(1,0,0,1,174.2002,202.3102)">
                    <path d="M0,-33.942L18.219,-1.248L-17.969,0" style="fill:none;fill-rule:nonzero;stroke:rgb(1,50,31);stroke-width:1px;stroke-linecap:butt;"/>
                </g>
                <g transform="matrix(1,0,0,1,237.4663,239.2465)">
                    <path d="M0,-98.955L-26.33,-84.854L-53.783,-89.846L-38.977,-64.604L-12.853,-64.39L-6.239,-39.308C-6.239,-39.308 -36.063,-25.207 -35.314,-25.207C-34.565,-25.207 -22.336,-7.986 -22.336,-7.986L-8.777,-19.716L10.856,-11.231L26.829,-38.184L38.184,-3.12L51.537,-17.969L61.27,0L74.747,-18.219L56.778,-49.165L84.23,-37.186L71.086,-75.62L43.051,-76.119L43.425,-95.96L0,-98.955Z" style="fill:none;fill-rule:nonzero;stroke:rgb(1,50,31);stroke-width:1px;stroke-linecap:butt;"/>
                </g>
                <g transform="matrix(1,0,0,1,340.1396,201.7228)">
                    <path d="M0,-12.674C-0.496,-13.234 -1.083,-13.713 -1.73,-14.087C-2.565,-14.569 -3.517,-14.878 -4.479,-14.855C-6.522,-14.806 -8.392,-13.08 -8.602,-11.048C-8.749,-9.623 -8.172,-8.224 -7.469,-6.977C-6.766,-5.729 -5.92,-4.548 -5.444,-3.197C-4.832,-1.46 -4.888,0.504 -5.596,2.204" style="fill:none;fill-rule:nonzero;stroke:rgb(1,50,31);stroke-width:2px;"/>
                </g>
                <g transform="matrix(1,0,0,1,338.418,208.5495)">
                    <path d="M0,4.991L-14.975,-6.988L-24.458,11.979L0,4.991Z" style="fill:none;fill-rule:nonzero;stroke:rgb(1,50,31);stroke-width:1px;stroke-linecap:butt;"/>
                </g>
                <g transform="matrix(-0.970017,0.243039,0.243039,0.970017,330.906593,247.063121)">
                    <path d="M-5.066,-0.625C-3.356,-0.47 -1.632,-0.47 0.077,-0.625" style="fill:none;fill-rule:nonzero;stroke:rgb(1,50,31);stroke-width:2px;"/>
                </g>
                <g transform="matrix(1,0,0,1,155.3491,198.1913)">
                    <path d="M0,-11.453C-2.938,-11.203 -5.774,-9.895 -7.873,-7.825C-9.972,-5.753 -11.316,-2.934 -11.604,0" style="fill:none;fill-rule:nonzero;stroke:rgb(1,50,31);stroke-width:2px;"/>
                </g>
                <g transform="matrix(1,0,0,1,158.5977,173.7545)">
                    <path d="M0,1.601C1.108,2.007 2.361,1.849 3.458,1.412C4.555,0.976 5.527,0.282 6.487,-0.406" style="fill:none;fill-rule:nonzero;stroke:rgb(1,50,31);stroke-width:2px;"/>
                </g>
                <g transform="matrix(-0.509743,0.860327,0.860327,0.509743,215.908586,140.019908)">
                    <path d="M-8.376,-4.773C-4.734,-5.564 -0.923,-5.563 2.72,-4.773" style="fill:none;fill-rule:nonzero;stroke:rgb(1,50,31);stroke-width:2px;stroke-linejoin:round;"/>
                </g>
                <g transform="matrix(-0.304068,0.95265,0.95265,0.304068,194.865039,142.636261)">
                    <path d="M-4.014,-2.932C-1.963,-3.007 0.091,-3.008 2.142,-2.932" style="fill:none;fill-rule:nonzero;stroke:rgb(1,50,31);stroke-width:2px;stroke-linejoin:round;"/>
                </g>
                <g transform="matrix(-0.18239,0.983226,0.983226,0.18239,288.150265,142.693936)">
                    <path d="M-4.624,-4.004C-2.015,-3.356 0.751,-3.355 3.359,-4.004" style="fill:none;fill-rule:nonzero;stroke:rgb(1,50,31);stroke-width:2px;stroke-linejoin:round;"/>
                </g>
                <g transform="matrix(-0.984225,0.176922,0.176922,0.984225,309.919832,162.174951)">
                    <path d="M-12.625,-0.086C-8.641,-1.875 -3.991,-1.328 0.195,-0.086" style="fill:none;fill-rule:nonzero;stroke:rgb(1,50,31);stroke-width:2px;"/>
                </g>
                <g transform="matrix(1,0,0,1,321.0176,266.368)">
                    <path d="M0,-17.16C1.263,-13.495 0.774,-9.268 -1.292,-5.988C-3.358,-2.709 -6.96,-0.443 -10.811,0" style="fill:none;fill-rule:nonzero;stroke:rgb(1,50,31);stroke-width:2px;"/>
                </g>
                <g transform="matrix(0,-1,-1,0,308.5525,157.637)">
                    <path d="M-5.99,-5.99C-9.297,-5.99 -11.98,-3.308 -11.98,-0C-11.98,3.308 -9.297,5.99 -5.99,5.99C-2.682,5.99 0,3.308 0,-0C0,-3.308 -2.682,-5.99 -5.99,-5.99" style="fill:rgb(23,186,87);fill-rule:nonzero;"/>
                </g>
                <g transform="matrix(0,-1,-1,0,257.058,154.6414)">
                    <path d="M-8.486,-8.485C-13.172,-8.485 -16.971,-4.686 -16.971,0C-16.971,4.687 -13.172,8.486 -8.486,8.486C-3.799,8.486 0,4.687 0,0C0,-4.686 -3.799,-8.485 -8.486,-8.485" style="fill:rgb(0,101,57);fill-opacity:0.07;fill-rule:nonzero;"/>
                </g>
                <g transform="matrix(0,-1,-1,0,280.8918,137.9201)">
                    <path d="M-5.366,-5.366C-8.33,-5.366 -10.732,-2.964 -10.732,0C-10.732,2.964 -8.33,5.366 -5.366,5.366C-2.403,5.366 0,2.964 0,0C0,-2.964 -2.403,-5.366 -5.366,-5.366" style="fill:rgb(0,101,57);fill-opacity:0.07;fill-rule:nonzero;"/>
                </g>
                <g transform="matrix(0,-1,-1,0,280.6428,156.6379)">
                    <path d="M-5.616,-5.615C-8.717,-5.615 -11.231,-3.1 -11.231,0.001C-11.231,3.102 -8.717,5.616 -5.616,5.616C-2.514,5.616 0,3.102 0,0.001C0,-3.1 -2.514,-5.615 -5.616,-5.615" style="fill:rgb(192,164,252);fill-rule:nonzero;"/>
                </g>
                <g transform="matrix(0,-1,-1,0,157.6033,194.3235)">
                    <path d="M-7.362,-7.362C-11.428,-7.362 -14.724,-4.066 -14.724,-0.001C-14.724,4.065 -11.428,7.362 -7.362,7.362C-3.296,7.362 -0.001,4.065 -0.001,-0.001C-0.001,-4.066 -3.296,-7.362 -7.362,-7.362" style="fill:rgb(0,101,57);fill-opacity:0.07;fill-rule:nonzero;"/>
                </g>
                <g transform="matrix(0,-1,-1,0,174.1999,163.8757)">
                    <path d="M-4.493,-4.493C-6.974,-4.493 -8.985,-2.482 -8.985,-0.001C-8.985,2.481 -6.974,4.493 -4.493,4.493C-2.012,4.493 -0.001,2.481 -0.001,-0.001C-0.001,-2.482 -2.012,-4.493 -4.493,-4.493" style="fill:rgb(0,101,57);fill-opacity:0.07;fill-rule:nonzero;"/>
                </g>
                <g transform="matrix(0,-1,-1,0,190.6713,188.0849)">
                    <path d="M-9.483,-9.484C-14.721,-9.484 -18.967,-5.238 -18.967,-0.001C-18.967,5.237 -14.721,9.483 -9.483,9.483C-4.246,9.483 0,5.237 0,-0.001C0,-5.238 -4.246,-9.484 -9.483,-9.484" style="fill:rgb(0,101,57);fill-opacity:0.07;fill-rule:nonzero;"/>
                </g>
                <g transform="matrix(0,-1,-1,0,295.7406,179.849)">
                    <path d="M-9.483,-9.484C-14.721,-9.484 -18.967,-5.238 -18.967,-0.001C-18.967,5.238 -14.721,9.483 -9.483,9.483C-4.246,9.483 0,5.238 0,-0.001C0,-5.238 -4.246,-9.484 -9.483,-9.484" style="fill:rgb(192,164,252);fill-rule:nonzero;"/>
                </g>
                <g transform="matrix(0,-1,-1,0,178.0685,215.5373)">
                    <path d="M-4.118,-4.118C-6.392,-4.118 -8.236,-2.274 -8.236,0C-8.236,2.275 -6.392,4.118 -4.118,4.118C-1.844,4.118 0,2.275 0,0C0,-2.274 -1.844,-4.118 -4.118,-4.118" style="fill:rgb(23,186,87);fill-rule:nonzero;"/>
                </g>
                <g transform="matrix(0,-1,-1,0,209.5146,144.4096)">
                    <path d="M-10.357,-10.357C-16.077,-10.357 -20.714,-5.72 -20.714,0C-20.714,5.72 -16.077,10.357 -10.357,10.357C-4.637,10.357 0,5.72 0,0C0,-5.72 -4.637,-10.357 -10.357,-10.357" style="fill:rgb(0,101,57);fill-opacity:0.07;fill-rule:nonzero;"/>
                </g>
                <g transform="matrix(0,-1,-1,0,199.2007,169.2794)">
                    <path d="M-5.539,-5.54C-8.599,-5.54 -11.079,-3.06 -11.079,0C-11.079,3.059 -8.599,5.539 -5.539,5.539C-2.48,5.539 0,3.059 0,0C0,-3.06 -2.48,-5.54 -5.539,-5.54" style="fill:rgb(192,164,252);fill-rule:nonzero;"/>
                </g>
                <g transform="matrix(-0.07511,-0.997175,-0.997175,0.07511,222.423473,164.665094)">
                    <path d="M-11.364,-12.252C-17.658,-12.252 -22.761,-7.15 -22.76,-0.856C-22.76,5.438 -17.658,10.54 -11.364,10.541C-5.07,10.54 0.032,5.439 0.032,-0.856C0.032,-7.15 -5.07,-12.252 -11.364,-12.252" style="fill:rgb(23,186,87);fill-rule:nonzero;"/>
                </g>
                <g transform="matrix(0,-1,-1,0,215.1301,227.0178)">
                    <path d="M-4.243,-4.243C-6.586,-4.243 -8.486,-2.343 -8.486,0C-8.486,2.343 -6.586,4.243 -4.243,4.243C-1.9,4.243 0,2.343 0,0C0,-2.343 -1.9,-4.243 -4.243,-4.243" style="fill:rgb(192,164,252);fill-rule:nonzero;"/>
                </g>
                <g transform="matrix(0,-1,-1,0,229.396,213.9248)">
                    <path d="M-5.729,-5.729C-8.893,-5.729 -11.457,-3.165 -11.457,0C-11.457,3.164 -8.893,5.729 -5.729,5.729C-2.565,5.729 0,3.164 0,0C0,-3.165 -2.565,-5.729 -5.729,-5.729" style="fill:rgb(0,101,57);fill-opacity:0.07;fill-rule:nonzero;"/>
                </g>
                <g transform="matrix(0,-1,-1,0,265.2936,187.5876)">
                    <path d="M-14.972,-14.972C-23.241,-14.972 -29.944,-8.269 -29.944,0.001C-29.944,8.269 -23.241,14.972 -14.972,14.972C-6.703,14.972 0,8.269 0,0.001C0,-8.269 -6.703,-14.972 -14.972,-14.972" style="fill:rgb(23,186,87);fill-rule:nonzero;"/>
                </g>
                <g transform="matrix(0,-1,-1,0,247.9485,221.2771)">
                    <path d="M-5.366,-5.366C-8.329,-5.366 -10.732,-2.963 -10.732,0C-10.732,2.964 -8.329,5.366 -5.366,5.366C-2.403,5.366 0,2.964 0,0C0,-2.963 -2.403,-5.366 -5.366,-5.366" style="fill:rgb(0,101,57);fill-opacity:0.07;fill-rule:nonzero;"/>
                </g>
                <g transform="matrix(0,-1,-1,0,275.6507,229.014)">
                    <path d="M-7.113,-7.113C-11.041,-7.113 -14.226,-3.928 -14.226,0C-14.226,3.928 -11.041,7.113 -7.113,7.113C-3.184,7.113 0,3.928 0,0C0,-3.928 -3.184,-7.113 -7.113,-7.113" style="fill:rgb(0,101,57);fill-opacity:0.07;fill-rule:nonzero;"/>
                </g>
                <g transform="matrix(0,-1,-1,0,290.6247,216.7858)">
                    <path d="M-4.366,-4.367C-6.778,-4.367 -8.734,-2.412 -8.734,-0C-8.734,2.412 -6.778,4.366 -4.366,4.366C-1.954,4.366 0,2.412 0,-0C0,-2.412 -1.954,-4.367 -4.366,-4.367" style="fill:rgb(23,186,87);fill-rule:nonzero;"/>
                </g>
                <g transform="matrix(0,-1,-1,0,231.2269,191.184)">
                    <path d="M-8.755,-8.755C-13.59,-8.755 -17.51,-4.835 -17.51,0C-17.51,4.835 -13.59,8.755 -8.755,8.755C-3.92,8.755 0,4.835 0,0C0,-4.835 -3.92,-8.755 -8.755,-8.755" style="fill:rgb(0,101,57);fill-opacity:0.07;fill-rule:nonzero;"/>
                </g>
                <g transform="matrix(0,-1,-1,0,321.6961,195.072)">
                    <path d="M-6.989,-6.989C-10.848,-6.989 -13.977,-3.86 -13.977,-0C-13.977,3.859 -10.848,6.989 -6.989,6.989C-3.13,6.989 -0,3.859 -0,-0C-0,-3.86 -3.13,-6.989 -6.989,-6.989" style="fill:rgb(0,101,57);fill-opacity:0.07;fill-rule:nonzero;"/>
                </g>
                <g transform="matrix(0,-1,-1,0,313.0862,214.2088)">
                    <path d="M-6.195,-6.195C-9.616,-6.195 -12.39,-3.422 -12.39,-0C-12.39,3.421 -9.616,6.195 -6.195,6.195C-2.774,6.195 -0,3.421 -0,-0C-0,-3.422 -2.774,-6.195 -6.195,-6.195" style="fill:rgb(23,186,87);fill-rule:nonzero;"/>
                </g>
                <g transform="matrix(0,-1,-1,0,338.4182,207.8005)">
                    <path d="M-5.74,-5.74C-8.91,-5.74 -11.48,-3.17 -11.48,0C-11.48,3.171 -8.91,5.74 -5.74,5.74C-2.57,5.74 0,3.171 0,0C0,-3.17 -2.57,-5.74 -5.74,-5.74" style="fill:rgb(0,101,57);fill-opacity:0.07;fill-rule:nonzero;"/>
                </g>
                <g transform="matrix(0,-1,-1,0,320.0745,238.9964)">
                    <path d="M-7.113,-7.113C-11.042,-7.113 -14.226,-3.928 -14.226,0C-14.226,3.929 -11.042,7.113 -7.113,7.113C-3.185,7.113 0,3.929 0,0C0,-3.928 -3.185,-7.113 -7.113,-7.113" style="fill:rgb(0,101,57);fill-opacity:0.07;fill-rule:nonzero;"/>
                </g>
                <g transform="matrix(0,-1,-1,0,298.736,235.7531)">
                    <path d="M-3.494,-3.494C-5.423,-3.494 -6.987,-1.931 -6.987,-0.001C-6.987,1.929 -5.423,3.494 -3.494,3.494C-1.564,3.494 0,1.929 0,-0.001C0,-1.931 -1.564,-3.494 -3.494,-3.494" style="fill:rgb(0,101,57);fill-opacity:0.07;fill-rule:nonzero;"/>
                </g>
                <g transform="matrix(0,-1,-1,0,292.2469,249.4784)">
                    <path d="M-8.486,-8.486C-13.172,-8.486 -16.971,-4.687 -16.971,-0C-16.971,4.687 -13.172,8.486 -8.486,8.486C-3.8,8.486 -0,4.687 -0,-0C-0,-4.687 -3.8,-8.486 -8.486,-8.486" style="fill:rgb(23,186,87);fill-rule:nonzero;"/>
                </g>
                <g transform="matrix(0,-1,-1,0,237.4661,132.929)">
                    <path d="M-7.362,-7.362C-11.428,-7.362 -14.724,-4.066 -14.724,-0.001C-14.724,4.065 -11.428,7.362 -7.362,7.362C-3.296,7.362 -0.001,4.065 -0.001,-0.001C-0.001,-4.066 -3.296,-7.362 -7.362,-7.362" style="fill:rgb(23,186,87);fill-rule:nonzero;"/>
                </g>
                <g transform="matrix(0,-1,-1,0,184.1829,144.4094)">
                    <path d="M-6.24,-6.24C-9.686,-6.24 -12.479,-3.447 -12.479,-0C-12.479,3.446 -9.686,6.24 -6.24,6.24C-2.794,6.24 -0,3.446 -0,-0C-0,-3.447 -2.794,-6.24 -6.24,-6.24" style="fill:rgb(23,186,87);fill-rule:nonzero;"/>
                </g>
                <g transform="matrix(0,-1,-1,0,202.152,208.4216)">
                    <path d="M-5.618,-5.618C-8.721,-5.618 -11.236,-3.103 -11.236,0C-11.236,3.103 -8.721,5.618 -5.618,5.618C-2.515,5.618 0,3.103 0,0C0,-3.103 -2.515,-5.618 -5.618,-5.618" style="fill:rgb(23,186,87);fill-rule:nonzero;"/>
                </g>
                <g transform="matrix(0,-1,-1,0,198.907,227.0179)">
                    <path d="M-7.736,-7.737C-12.009,-7.737 -15.473,-4.273 -15.473,-0.001C-15.473,4.272 -12.009,7.736 -7.736,7.736C-3.464,7.736 0,4.272 0,-0.001C0,-4.273 -3.464,-7.737 -7.736,-7.737" style="fill:rgb(0,101,57);fill-opacity:0.07;fill-rule:nonzero;"/>
                </g>
                <g transform="matrix(0,-1,-1,0,232.4749,234.2552)">
                    <path d="M-8.111,-8.111C-12.59,-8.111 -16.222,-4.48 -16.222,0C-16.222,4.48 -12.59,8.111 -8.111,8.111C-3.631,8.111 0,4.48 0,0C0,-4.48 -3.631,-8.111 -8.111,-8.111" style="fill:rgb(23,186,87);fill-rule:nonzero;"/>
                </g>
                <g transform="matrix(-0.188032,0.982163,0.982163,0.188032,263.890671,134.718159)">
                    <path d="M-3.62,-2.993C-1.595,-2.796 0.449,-2.795 2.474,-2.993" style="fill:none;fill-rule:nonzero;stroke:rgb(1,50,31);stroke-width:2px;stroke-linejoin:round;"/>
                </g>
                <g transform="matrix(0.747688,0.66405,0.66405,-0.747688,247.113283,125.017698)">
                    <path d="M-0.698,-1.838C1.144,-1.7 2.996,-1.7 4.837,-1.838" style="fill:none;fill-rule:nonzero;stroke:rgb(1,50,31);stroke-width:2px;stroke-linejoin:round;"/>
                </g>
                <g transform="matrix(0.077776,-0.996971,-0.996971,-0.077776,162.932879,225.631541)">
                    <path d="M-2.401,2.557C-0.685,2.73 1.051,2.73 2.767,2.557" style="fill:none;fill-rule:nonzero;stroke:rgb(1,50,31);stroke-width:2px;stroke-linejoin:round;"/>
                </g>
                <g transform="matrix(1,0,0,1,173.2681,228.9976)">
                    <path d="M0,2.519C1.683,3.504 3.834,2.956 5.61,2.152C7.415,1.334 9.112,0.276 10.64,-0.985" style="fill:none;fill-rule:nonzero;stroke:rgb(1,50,31);stroke-width:2px;stroke-linejoin:round;"/>
                </g>
                <g transform="matrix(1,0,0,1,167.4517,222.0018)">
                    <path d="M0,-12.533C1.718,-11.074 2.442,-8.689 2.335,-6.438C2.228,-4.186 1.389,-2.035 0.42,0" style="fill:none;fill-rule:nonzero;stroke:rgb(1,50,31);stroke-width:2px;"/>
                </g>
                <g transform="matrix(0.202754,0.97923,0.97923,-0.202754,150.709375,214.261709)">
                    <path d="M-3.35,-3.512C-0.92,-4.643 2.009,-4.643 4.438,-3.512" style="fill:none;fill-rule:nonzero;stroke:rgb(1,50,31);stroke-width:2px;"/>
                </g>
                <g transform="matrix(-0.943275,-0.332011,-0.332011,0.943275,331.652518,221.40031)">
                    <path d="M-9.927,1.696C-7.899,1.733 -1.729,1.894 0.29,1.696" style="fill:none;fill-rule:nonzero;stroke:rgb(1,50,31);stroke-width:2px;"/>
                </g>
                <g transform="matrix(1,0,0,1,304.1289,151.2801)">
                    <path d="M0,-3.847C-0.972,-4.867 -2.665,-4.305 -3.929,-3.681C-7.099,-2.114 -10.269,-0.547 -13.438,1.02" style="fill:none;fill-rule:nonzero;stroke:rgb(1,50,31);stroke-width:2px;"/>
                </g>
                <g transform="matrix(1,0,0,1,294.6904,386.7593)">
                    <path d="M0,18.812C-5.193,24.677 -14.191,25.223 -20.057,20.029C-25.921,14.834 -26.467,5.837 -21.272,-0.028C-16.078,-5.893 -7.081,-6.439 -1.216,-1.245C4.649,3.95 5.195,12.947 0,18.812M6.742,29.015C4.839,27.491 4.531,24.711 6.056,22.808C7.58,20.905 10.359,20.597 12.263,22.122C12.422,22.249 12.553,22.396 12.688,22.54C13.567,20.984 14.275,19.368 14.815,17.711C14.6,17.711 14.384,17.712 14.164,17.678C11.753,17.31 10.098,15.057 10.466,12.647C10.834,10.236 13.087,8.581 15.498,8.949C15.719,8.982 15.926,9.048 16.133,9.112C16.112,7.336 15.916,5.568 15.548,3.831C15.348,3.948 15.146,4.063 14.923,4.15C12.65,5.037 10.09,3.914 9.204,1.642C8.317,-0.63 9.44,-3.191 11.712,-4.077C11.934,-4.164 12.159,-4.215 12.385,-4.264C11.485,-5.779 10.427,-7.219 9.212,-8.558C9.095,-8.347 8.971,-8.139 8.815,-7.945C7.291,-6.041 4.512,-5.734 2.608,-7.258C0.705,-8.783 0.396,-11.561 1.921,-13.465C2.07,-13.651 2.24,-13.809 2.411,-13.964C0.834,-14.846 -0.807,-15.553 -2.484,-16.088C-2.481,-15.85 -2.484,-15.61 -2.521,-15.366C-2.89,-12.956 -5.143,-11.299 -7.554,-11.667C-9.964,-12.036 -11.62,-14.289 -11.252,-16.7C-11.217,-16.926 -11.15,-17.139 -11.084,-17.351C-12.858,-17.32 -14.625,-17.11 -16.359,-16.731C-16.247,-16.537 -16.134,-16.34 -16.05,-16.125C-15.163,-13.852 -16.286,-11.292 -18.559,-10.406C-20.83,-9.519 -23.391,-10.643 -24.277,-12.915C-24.354,-13.114 -24.397,-13.317 -24.445,-13.519C-25.937,-12.62 -27.354,-11.566 -28.672,-10.359C-28.493,-10.253 -28.312,-10.151 -28.145,-10.017C-26.241,-8.493 -25.934,-5.714 -27.458,-3.81C-28.982,-1.907 -31.762,-1.599 -33.665,-3.124C-33.812,-3.242 -33.932,-3.378 -34.06,-3.51C-34.915,-1.961 -35.604,-0.354 -36.126,1.291C-35.939,1.295 -35.755,1.291 -35.566,1.319C-33.155,1.688 -31.499,3.94 -31.868,6.351C-32.236,8.762 -34.489,10.417 -36.899,10.049C-37.066,10.024 -37.22,9.968 -37.378,9.926C-37.344,11.658 -37.141,13.383 -36.774,15.078C-36.626,14.999 -36.485,14.911 -36.324,14.847C-34.053,13.961 -31.492,15.084 -30.605,17.356C-29.72,19.628 -30.843,22.189 -33.114,23.075C-33.262,23.132 -33.412,23.159 -33.562,23.2C-32.683,24.662 -31.653,26.05 -30.479,27.346C-30.393,27.21 -30.319,27.071 -30.218,26.943C-28.693,25.04 -25.914,24.732 -24.011,26.256C-22.106,27.781 -21.8,30.559 -23.323,32.462C-23.42,32.583 -23.533,32.677 -23.639,32.784C-22.112,33.636 -20.527,34.326 -18.906,34.853C-18.899,34.69 -18.906,34.529 -18.881,34.364C-18.513,31.953 -16.26,30.297 -13.849,30.666C-11.438,31.034 -9.782,33.287 -10.15,35.697C-10.175,35.859 -10.229,36.007 -10.271,36.163C-8.537,36.138 -6.81,35.947 -5.113,35.59C-5.195,35.436 -5.287,35.29 -5.353,35.123C-6.239,32.85 -5.115,30.29 -2.844,29.404C-0.571,28.517 1.988,29.64 2.875,31.913C2.941,32.083 2.975,32.255 3.019,32.427C4.504,31.548 5.916,30.515 7.232,29.333C7.066,29.232 6.898,29.139 6.742,29.015" style="fill:rgb(0,101,57);fill-rule:nonzero;"/>
                </g>
                <g transform="matrix(0.663004,-0.748616,-0.748616,-0.663004,295.846494,394.715683)">
                    <ellipse cx="-8.893" cy="7.876" rx="11.879" ry="11.88" style="fill:none;stroke:rgb(1,50,31);stroke-width:1px;stroke-linecap:butt;"/>
                </g>
                <g transform="matrix(1,0,0,1,249.5557,368.3299)">
                    <path d="M0,-28.45C7.843,-24.754 11.215,-15.364 7.518,-7.521C3.821,0.322 -5.567,3.696 -13.41,-0.002C-21.253,-3.699 -24.626,-13.088 -20.93,-20.93C-17.232,-28.773 -7.843,-32.147 0,-28.45M-33.08,-28.566C-33.248,-28.701 -33.384,-28.858 -33.531,-29.01C-34.51,-27.237 -35.298,-25.396 -35.896,-23.513C-35.683,-23.509 -35.472,-23.514 -35.255,-23.481C-32.496,-23.059 -30.601,-20.481 -31.022,-17.721C-31.443,-14.962 -34.022,-13.067 -36.782,-13.488C-36.973,-13.517 -37.148,-13.58 -37.33,-13.63C-37.29,-11.646 -37.058,-9.672 -36.638,-7.733C-36.468,-7.823 -36.307,-7.925 -36.124,-7.996C-33.523,-9.011 -30.592,-7.725 -29.578,-5.125C-28.563,-2.524 -29.849,0.406 -32.449,1.421C-32.618,1.487 -32.79,1.517 -32.961,1.564C-31.955,3.237 -30.777,4.827 -29.432,6.311C-29.334,6.155 -29.25,5.995 -29.133,5.849C-27.388,3.67 -24.208,3.318 -22.029,5.063C-19.85,6.808 -19.498,9.988 -21.242,12.167C-21.352,12.304 -21.482,12.412 -21.603,12.534C-19.856,13.51 -18.042,14.3 -16.186,14.904C-16.178,14.717 -16.186,14.532 -16.157,14.343C-15.735,11.583 -13.156,9.689 -10.397,10.11C-7.638,10.531 -5.742,13.111 -6.164,15.869C-6.192,16.055 -6.254,16.225 -6.301,16.402C-4.317,16.374 -2.339,16.155 -0.397,15.747C-0.492,15.571 -0.597,15.403 -0.672,15.211C-1.687,12.611 -0.4,9.68 2.199,8.665C4.801,7.651 7.731,8.937 8.746,11.537C8.821,11.732 8.859,11.93 8.91,12.127C10.609,11.12 12.226,9.938 13.733,8.584C13.544,8.469 13.351,8.363 13.173,8.221C10.994,6.476 10.642,3.295 12.387,1.116C14.132,-1.063 17.312,-1.415 19.491,0.33C19.673,0.476 19.823,0.644 19.979,0.808C20.985,-0.971 21.796,-2.823 22.414,-4.718C22.167,-4.719 21.919,-4.717 21.668,-4.756C18.908,-5.178 17.013,-7.756 17.435,-10.515C17.855,-13.275 20.435,-15.17 23.194,-14.748C23.447,-14.71 23.684,-14.635 23.921,-14.561C23.897,-16.593 23.673,-18.619 23.251,-20.606C23.022,-20.471 22.791,-20.34 22.536,-20.241C19.936,-19.225 17.005,-20.512 15.99,-23.112C14.976,-25.713 16.261,-28.643 18.861,-29.658C19.115,-29.757 19.373,-29.816 19.631,-29.872C18.602,-31.606 17.391,-33.254 15.999,-34.787C15.865,-34.546 15.724,-34.307 15.545,-34.085C13.801,-31.906 10.62,-31.554 8.44,-33.299C6.262,-35.044 5.909,-38.224 7.654,-40.403C7.825,-40.617 8.019,-40.797 8.215,-40.975C6.409,-41.985 4.532,-42.794 2.611,-43.407C2.614,-43.134 2.611,-42.858 2.569,-42.58C2.147,-39.82 -0.432,-37.925 -3.191,-38.346C-5.95,-38.768 -7.846,-41.346 -7.424,-44.106C-7.385,-44.366 -7.308,-44.609 -7.232,-44.852C-9.263,-44.816 -11.286,-44.576 -13.271,-44.141C-13.142,-43.919 -13.013,-43.695 -12.916,-43.448C-11.901,-40.847 -13.187,-37.917 -15.788,-36.902C-18.388,-35.887 -21.319,-37.173 -22.333,-39.773C-22.422,-40.002 -22.472,-40.233 -22.526,-40.465C-24.233,-39.436 -25.855,-38.229 -27.364,-36.848C-27.159,-36.727 -26.952,-36.61 -26.761,-36.458C-24.582,-34.713 -24.23,-31.532 -25.975,-29.352C-27.72,-27.174 -30.9,-26.822 -33.08,-28.566" style="fill:rgb(0,101,57);fill-rule:nonzero;"/>
                </g>
                <g transform="matrix(0.663008,-0.748613,-0.748613,-0.663008,256.170218,352.586163)">
                    <ellipse cx="-10.013" cy="8.868" rx="13.376" ry="13.376" style="fill:none;stroke:rgb(1,50,31);stroke-width:1px;stroke-linecap:butt;"/>
                </g>
                <g transform="matrix(1,0,0,1,140.3408,205.346)">
                    <path d="M0,114.113L0,96.345C0,92.666 -2.983,89.682 -6.663,89.682L-35.75,89.682C-39.675,89.682 -42.857,86.501 -42.857,82.576L-42.857,0" style="fill:none;fill-rule:nonzero;stroke:rgb(192,164,252);stroke-width:2px;"/>
                </g>
                <g transform="matrix(-1,0,0,1,227.823,173.876)">
                    <rect x="61" y="150.057" width="105.823" height="26.01" style="fill:rgb(0,101,57);"/>
                </g>
                <g transform="matrix(1,0,0,1,0,180.032)">
                    <rect x="68.229" y="159.285" width="71.127" height="1.398" style="fill:rgb(29,29,27);"/>
                </g>
                <g transform="matrix(-1,0,0,1,207.583,169.683)">
                    <rect x="68.228" y="163.201" width="71.127" height="3.915" style="fill:rgb(229,219,255);"/>
                </g>
                <g transform="matrix(1,0,0,1,0,180.032)">
                    <rect x="149.186" y="159.285" width="9.085" height="1.398" style="fill:rgb(29,29,27);"/>
                </g>
                <g transform="matrix(-1,0,0,1,307.457,169.683)">
                    <rect x="149.186" y="163.201" width="9.085" height="3.915" style="fill:rgb(229,219,255);"/>
                </g>
                <g transform="matrix(-1,0,0,1,233.684,177.116)">
                    <rect x="63.512" y="148.437" width="106.66" height="26.01" style="fill:none;stroke:rgb(1,50,31);stroke-width:1px;stroke-linecap:butt;"/>
                </g>
                <g transform="matrix(-1,0,0,1,227.823,231.491)">
                    <rect x="61" y="121.249" width="105.823" height="26.011" style="fill:rgb(192,164,252);"/>
                </g>
                <g transform="matrix(1,0,0,1,0,237.644)">
                    <rect x="68.229" y="130.479" width="71.127" height="1.398" style="fill:rgb(29,29,27);"/>
                </g>
                <g transform="matrix(-1,0,0,1,207.583,227.295)">
                    <rect x="68.228" y="134.395" width="71.127" height="3.915" style="fill:rgb(229,219,255);"/>
                </g>
                <g transform="matrix(1,0,0,1,0,237.644)">
                    <rect x="149.186" y="130.479" width="9.085" height="1.398" style="fill:rgb(29,29,27);"/>
                </g>
                <g transform="matrix(-1,0,0,1,307.457,227.295)">
                    <rect x="149.186" y="134.395" width="9.085" height="3.915" style="fill:rgb(229,219,255);"/>
                </g>
                <g transform="matrix(-1,0,0,1,233.684,234.73)">
                    <rect x="63.512" y="119.63" width="106.66" height="26.01" style="fill:none;stroke:rgb(1,50,31);stroke-width:1px;stroke-linecap:butt;"/>
                </g>
                <g transform="matrix(-1,0,0,1,227.823,289.106)">
                    <rect x="61" y="92.442" width="105.823" height="26.01" style="fill:rgb(0,101,57);"/>
                </g>
                <g transform="matrix(1,0,0,1,0,295.258)">
                    <rect x="68.229" y="101.672" width="71.127" height="1.398" style="fill:rgb(29,29,27);"/>
                </g>
                <g transform="matrix(-1,0,0,1,207.583,284.91)">
                    <rect x="68.228" y="105.587" width="71.127" height="3.916" style="fill:rgb(229,219,255);"/>
                </g>
                <g transform="matrix(1,0,0,1,0,295.258)">
                    <rect x="149.186" y="101.672" width="9.085" height="1.398" style="fill:rgb(29,29,27);"/>
                </g>
                <g transform="matrix(-1,0,0,1,307.457,284.91)">
                    <rect x="149.186" y="105.587" width="9.085" height="3.916" style="fill:rgb(229,219,255);"/>
                </g>
                <g transform="matrix(-1,0,0,1,233.684,292.345)">
                    <rect x="63.512" y="90.822" width="106.66" height="26.011" style="fill:none;stroke:rgb(1,50,31);stroke-width:1px;stroke-linecap:butt;"/>
                </g>
                <g transform="matrix(-1,0,0,1,227.823,346.718)">
                    <rect x="61" y="63.636" width="105.823" height="26.01" style="fill:rgb(192,164,252);"/>
                </g>
                <g transform="matrix(1,0,0,1,0,352.872)">
                    <rect x="68.229" y="72.865" width="71.127" height="1.398" style="fill:rgb(29,29,27);"/>
                </g>
                <g transform="matrix(-1,0,0,1,207.583,342.524)">
                    <rect x="68.228" y="76.78" width="71.127" height="3.916" style="fill:rgb(229,219,255);"/>
                </g>
                <g transform="matrix(1,0,0,1,0,352.872)">
                    <rect x="149.186" y="72.865" width="9.085" height="1.398" style="fill:rgb(29,29,27);"/>
                </g>
                <g transform="matrix(-1,0,0,1,307.457,342.524)">
                    <rect x="149.186" y="76.78" width="9.085" height="3.916" style="fill:rgb(229,219,255);"/>
                </g>
                <g transform="matrix(-1,0,0,1,233.684,349.958)">
                    <rect x="63.512" y="62.016" width="106.66" height="26.01" style="fill:none;stroke:rgb(1,50,31);stroke-width:1px;stroke-linecap:butt;"/>
                </g>
                <g transform="matrix(1,0,0,1,138.8037,97.6464)">
                    <path d="M0,19.776C-10.947,19.776 -19.821,9.888 -19.821,9.888C-19.821,9.888 -10.947,0 0,0C10.947,0 19.821,9.888 19.821,9.888C19.821,9.888 10.947,19.776 0,19.776Z" style="fill:none;fill-rule:nonzero;stroke:rgb(1,50,31);stroke-width:1px;stroke-linecap:butt;"/>
                </g>
                <g transform="matrix(-0.760201,0.649688,0.649688,0.760201,147.761965,108.973003)">
                    <path d="M5.946,-16.111C0.953,-16.899 -3.095,-13.439 -3.095,-8.384C-3.094,-3.329 0.953,1.407 5.946,2.195C10.94,2.983 14.988,-0.477 14.988,-5.532C14.987,-10.587 10.94,-15.323 5.946,-16.111" style="fill:rgb(0,101,57);fill-rule:nonzero;"/>
                </g>
                <g transform="matrix(1,0,0,1,188.4385,84.9686)">
                    <path d="M0,19.776C-10.947,19.776 -19.821,9.888 -19.821,9.888C-19.821,9.888 -10.947,0 0,0C10.947,0 19.821,9.888 19.821,9.888C19.821,9.888 10.947,19.776 0,19.776Z" style="fill:none;fill-rule:nonzero;stroke:rgb(1,50,31);stroke-width:1px;stroke-linecap:butt;"/>
                </g>
                <g transform="matrix(-0.760201,0.649688,0.649688,0.760201,197.396765,96.295203)">
                    <path d="M5.946,-16.111C0.953,-16.899 -3.095,-13.439 -3.095,-8.384C-3.094,-3.329 0.953,1.407 5.946,2.195C10.94,2.983 14.988,-0.477 14.988,-5.532C14.987,-10.587 10.94,-15.323 5.946,-16.111" style="fill:rgb(0,101,57);fill-rule:nonzero;"/>
                </g>
                <g transform="matrix(1,0,0,1,346.2529,298.8236)">
                    <path d="M0,50.233L-33.706,50.233C-36.584,50.233 -38.916,48.299 -38.916,45.914L-38.916,0" style="fill:none;fill-rule:nonzero;stroke:rgb(192,164,252);stroke-width:2px;stroke-linecap:butt;"/>
                </g>
                <g transform="matrix(1,0,0,1,434.5703,287.765)">
                    <path d="M0,34.236L-87.004,34.236C-90.438,34.236 -93.247,31.503 -93.342,28.07L-93.935,6.514C-94.033,2.946 -91.167,0 -87.597,0L0,0C3.501,0 6.34,2.839 6.34,6.34L6.34,27.896C6.34,31.397 3.501,34.236 0,34.236" style="fill:rgb(23,186,87);fill-rule:nonzero;"/>
                </g>
                <g transform="matrix(1,0,0,1,419.9727,308.4046)">
                    <path d="M0,-3.762C-0.392,-0.268 -3.557,2.641 -6.922,2.6C-10.288,2.558 -13.386,-0.427 -13.699,-3.93C-13.816,-5.245 -13.434,-6.796 -12.272,-7.318C-11.111,-7.839 -9.695,-6.982 -9.206,-5.763C-8.718,-4.545 -8.966,-3.13 -9.468,-1.917C-10.994,1.77 -14.957,4.179 -18.778,3.742C-22.599,3.304 -25.97,0.055 -26.696,-3.89C-26.944,-5.24 -26.801,-6.867 -25.714,-7.641C-24.367,-8.6 -22.354,-7.469 -21.885,-5.837C-21.415,-4.205 -22.099,-2.435 -23.084,-1.077C-25.134,1.748 -28.609,3.192 -31.953,3.041C-33.454,2.973 -35.419,2.608 -36.667,1.704C-38.499,0.378 -40.331,-3.888 -38.892,-6.032C-38.607,-6.455 -38.148,-6.786 -37.654,-6.765C-37.317,-6.751 -37.002,-6.576 -36.746,-6.346C-36.09,-5.756 -35.794,-4.82 -35.769,-3.915C-35.716,-2.049 -36.764,0.037 -37.94,1.404C-40.132,3.95 -43.938,4.709 -46.958,3.383C-49.978,2.055 -52.087,-1.173 -52.384,-4.584C-52.495,-5.863 -51.973,-7.566 -50.746,-7.5C-49.842,-7.452 -49.305,-6.419 -49.105,-5.496C-48.531,-2.832 -49.345,0.114 -51.19,2.047C-53.036,3.98 -55.853,4.838 -58.401,4.243" style="fill:none;fill-rule:nonzero;stroke:rgb(1,50,31);stroke-width:1px;"/>
                </g>
                <g transform="matrix(1,0,0,1,347.4121,357.3441)">
                    <path d="M0,-28.225L86.719,-28.225C89.948,-28.225 92.566,-25.7 92.566,-22.585L92.566,-7.722C92.566,-4.661 90.034,-2.159 86.861,-2.083L1.147,-0.075C-2.005,0 -4.651,-2.352 -4.832,-5.389L-5.838,-22.261C-6.03,-25.498 -3.361,-28.225 0,-28.225" style="fill:rgb(23,186,87);fill-rule:nonzero;"/>
                </g>
                <g transform="matrix(1,0,0,1,356.2295,338.3412)">
                    <path d="M0,8.817C0.424,5.739 2.707,2.992 5.656,2.012C8.605,1.033 12.078,1.868 14.26,4.082C15.284,5.121 16.055,6.62 15.632,8.017C15.21,9.414 13.133,10.179 12.217,9.043C11.696,8.396 11.75,7.46 11.968,6.658C12.661,4.108 14.834,2.019 17.41,1.428C19.985,0.838 22.853,1.771 24.587,3.764C25.33,4.618 25.884,5.824 25.441,6.866C24.998,7.908 23.177,8.142 22.831,7.064C22.655,6.515 22.929,5.928 23.234,5.439C26.437,0.317 34.475,-0.852 39.004,3.146C40.013,4.038 40.897,5.308 40.661,6.633C40.425,7.959 38.496,8.825 37.665,7.766C36.905,6.8 37.7,5.4 38.573,4.536C40.652,2.48 43.313,1.018 46.163,0.366C48.485,-0.166 51.097,-0.113 53.04,1.265C54.983,2.644 55.853,5.641 54.377,7.51C54.134,7.818 53.821,8.095 53.44,8.185C51.963,8.535 51.451,6.187 52.077,4.804C54.33,-0.167 62.087,-1.362 65.73,2.703" style="fill:none;fill-rule:nonzero;stroke:rgb(1,50,31);stroke-width:1px;"/>
                </g>
                <g transform="matrix(1,0,0,1,342.0332,394.6154)">
                    <path d="M0,-23.923L0,-0.518C0,2.582 2.606,5.1 5.838,5.122L91.558,5.693C94.865,5.715 97.541,3.115 97.477,-0.058L97.027,-22.031C96.966,-25.049 94.438,-27.485 91.293,-27.559L6.022,-29.561C2.72,-29.638 0,-27.091 0,-23.923" style="fill:rgb(23,186,87);fill-rule:nonzero;"/>
                </g>
                <g transform="matrix(1,0,0,1,356.3281,387.4372)">
                    <path d="M0,-10.153C-0.791,-5.892 2.639,-1.332 6.953,-0.911C11.267,-0.49 15.514,-4.3 15.562,-8.634C15.565,-9.067 15.532,-9.508 15.362,-9.906C14.651,-11.569 11.871,-11.264 11.015,-9.671C10.159,-8.077 10.814,-6.049 11.942,-4.634C13.922,-2.153 17.341,-0.914 20.45,-1.551C23.56,-2.189 26.216,-4.674 27.059,-7.734C27.339,-8.75 27.17,-10.193 26.131,-10.369C25.272,-10.514 24.608,-9.613 24.352,-8.781C23.196,-5.029 26.211,-0.764 30.075,-0.076C33.939,0.613 37.961,-1.878 39.629,-5.43C40.18,-6.604 40.575,-9.895 38.321,-9.385C35.779,-8.811 37.176,-4.265 38.282,-2.995C39.962,-1.068 42.695,-0.353 45.247,-0.475C47.704,-0.592 50.215,-1.46 51.866,-3.282C52.897,-4.42 55.028,-9.194 52.442,-9.685C49.891,-10.171 49.578,-6.249 50.306,-4.596C52.815,1.109 60.89,0.374 64.085,-4.212C64.71,-5.107 65.565,-7.131 65.045,-8.245C64.262,-9.921 62.356,-8.995 61.746,-7.859C60.766,-6.036 60.794,-3.892 61.984,-2.178C63.801,0.435 67.619,1.416 70.471,0.001" style="fill:none;fill-rule:nonzero;stroke:rgb(1,50,31);stroke-width:1px;"/>
                </g>
                <g transform="matrix(1,0,0,1,412.6885,257.2997)">
                    <path d="M0,36.545C0.35,29.422 3.136,22.587 6.953,16.563C10.771,10.538 15.604,5.233 20.448,0C14.005,10.287 11.306,22.864 12.959,34.89" style="fill:rgb(23,186,87);fill-rule:nonzero;"/>
                </g>
                <g transform="matrix(1,0,0,1,355.0537,426.3305)">
                    <path d="M0,-33.27C3.228,-22.252 1.749,-9.941 -3.993,0C5.48,-7.248 11.591,-18.722 12.314,-30.628" style="fill:rgb(23,186,87);fill-rule:nonzero;"/>
                </g>
                <g transform="matrix(1,0,0,1,411.2773,164.3398)">
                    <path d="M0,-40.497L0,-8.396C0,-3.759 -3.759,0 -8.396,0L-79.598,0" style="fill:none;fill-rule:nonzero;stroke:rgb(192,164,252);stroke-width:2px;"/>
                </g>
                <g transform="matrix(1,0,0,1,387.6328,132.3411)">
                    <path d="M0,-10.366L0,8.061C0,12.031 3.218,15.25 7.188,15.25L30.249,15.25C34.22,15.25 37.438,12.031 37.438,8.061L37.438,-25.616" style="fill:none;fill-rule:nonzero;stroke:rgb(192,164,252);stroke-width:2px;"/>
                </g>
                <g transform="matrix(1,0,0,1,53.6289,95.7169)">
                    <path d="M0,32.828L0,19.53C-0.551,19.378 -1.126,19.605 -1.461,20.082C-2.565,21.652 -4.357,22.672 -6.382,22.667C-9.563,22.658 -12.252,20.028 -12.42,16.753C-12.604,13.146 -9.823,10.161 -6.366,10.161C-4.347,10.161 -2.563,11.181 -1.461,12.746C-1.126,13.223 -0.551,13.45 0,13.298L0,0L31.83,0L31.83,13.298C32.381,13.45 32.957,13.223 33.292,12.746C34.393,11.181 36.177,10.161 38.196,10.161C41.653,10.161 44.435,13.146 44.25,16.753C44.083,20.028 41.393,22.658 38.212,22.667C36.187,22.672 34.396,21.652 33.292,20.082C32.957,19.605 32.381,19.378 31.83,19.53L31.83,32.828L0,32.828Z" style="fill:rgb(0,101,57);fill-rule:nonzero;"/>
                </g>
                <g transform="matrix(1,0,0,1,83.7065,128.1381)">
                    <path d="M0,20.336C-1.19,22.001 -3.167,23.048 -5.38,22.908C-8.488,22.712 -11.019,20.085 -11.146,16.928C-11.288,13.357 -8.476,10.415 -4.986,10.415C-2.935,10.415 -1.12,11.435 0,13C0.34,13.476 0.925,13.704 1.486,13.552L1.486,0.254L-11.266,0.254C-11.416,-0.314 -11.191,-0.908 -10.722,-1.253C-9.179,-2.389 -8.174,-4.229 -8.174,-6.311C-8.174,-9.877 -11.116,-12.746 -14.672,-12.555C-17.901,-12.382 -20.493,-9.608 -20.502,-6.329C-20.507,-4.24 -19.501,-2.392 -17.954,-1.253C-17.484,-0.908 -17.26,-0.314 -17.41,0.254L-30.519,0.254L-30.519,13.552C-29.958,13.704 -29.374,13.477 -29.033,13C-27.91,11.43 -26.089,10.41 -24.029,10.415C-20.796,10.424 -18.062,13.054 -17.891,16.329C-17.703,19.936 -20.531,22.921 -24.046,22.921C-26.099,22.921 -27.913,21.901 -29.033,20.336C-29.374,19.86 -29.958,19.632 -30.519,19.784L-30.519,33.082L1.486,33.082L1.486,19.784C0.925,19.632 0.34,19.859 0,20.336" style="fill:rgb(23,186,87);fill-rule:nonzero;"/>
                </g>
                <g transform="matrix(1,0,0,1,79.8281,175.1121)">
                    <path d="M0,2.57C2.052,2.57 3.867,3.589 4.986,5.154C5.327,5.631 5.912,5.858 6.472,5.706L6.472,-7.591L19.581,-7.591C19.581,-8.158 19.237,-8.927 18.801,-9.281C16.35,-11.273 15.429,-15.119 18.135,-18.735C23.22,-22.667 28.817,-19.075 28.817,-14.157C28.817,-12.075 27.812,-10.234 26.269,-9.098C25.799,-8.753 25.575,-8.16 25.725,-7.591L38.833,-7.591L38.833,25.237L6.472,25.237L6.472,11.939C5.912,11.787 5.327,12.014 4.986,12.49C3.843,14.09 1.974,15.119 -0.134,15.074C-3.365,15.005 -6.071,12.279 -6.162,9.002C-6.259,5.467 -3.463,2.57 0,2.57" style="fill:rgb(0,101,57);fill-rule:nonzero;"/>
                </g>
                <g transform="matrix(0,-1,-1,0,97.6332,197.5629)">
                    <path d="M-5.024,-5.024C-7.798,-5.024 -10.048,-2.774 -10.048,0C-10.048,2.775 -7.798,5.024 -5.024,5.024C-2.249,5.024 0,2.775 0,0C0,-2.774 -2.249,-5.024 -5.024,-5.024" style="fill:rgb(192,164,252);fill-rule:nonzero;"/>
                </g>
                <g transform="matrix(0,-1,-1,0,117.6654,316.3759)">
                    <path d="M-5.023,-5.024C-7.797,-5.024 -10.047,-2.774 -10.047,-0C-10.047,2.775 -7.797,5.023 -5.023,5.023C-2.249,5.023 -0,2.775 -0,-0C-0,-2.774 -2.249,-5.024 -5.023,-5.024" style="fill:rgb(192,164,252);fill-rule:nonzero;"/>
                </g>
                <g transform="matrix(0,-1,-1,0,139.7494,316.3759)">
                    <path d="M-5.023,-5.024C-7.797,-5.024 -10.047,-2.775 -10.047,-0C-10.047,2.774 -7.797,5.023 -5.023,5.023C-2.249,5.023 -0,2.774 -0,-0C-0,-2.775 -2.249,-5.024 -5.023,-5.024" style="fill:rgb(192,164,252);fill-rule:nonzero;"/>
                </g>
                <g transform="matrix(0,-1,-1,0,333.3461,293.7768)">
                    <path d="M-5.024,-5.025C-7.799,-5.025 -10.048,-2.775 -10.048,-0.001C-10.048,2.774 -7.799,5.024 -5.024,5.024C-2.25,5.024 -0.001,2.774 -0.001,-0.001C-0.001,-2.775 -2.25,-5.025 -5.024,-5.025" style="fill:rgb(192,164,252);fill-rule:nonzero;"/>
                </g>
                <g transform="matrix(0,-1,-1,0,338.3559,344.7719)">
                    <path d="M-5.024,-5.024C-7.798,-5.024 -10.048,-2.775 -10.048,-0.001C-10.048,2.775 -7.798,5.024 -5.024,5.024C-2.25,5.024 0,2.775 0,-0.001C0,-2.775 -2.25,-5.024 -5.024,-5.024" style="fill:rgb(192,164,252);fill-rule:nonzero;"/>
                </g>
                <g transform="matrix(0,-1,-1,0,343.3656,381.5014)">
                    <path d="M-5.024,-5.024C-7.798,-5.024 -10.048,-2.775 -10.048,0C-10.048,2.775 -7.798,5.024 -5.024,5.024C-2.25,5.024 0,2.775 0,0C0,-2.775 -2.25,-5.024 -5.024,-5.024" style="fill:rgb(192,164,252);fill-rule:nonzero;"/>
                </g>
                <g transform="matrix(0,-1,-1,0,387.6322,116.9511)">
                    <path d="M-5.024,-5.024C-7.799,-5.024 -10.048,-2.775 -10.048,-0.001C-10.048,2.775 -7.799,5.024 -5.024,5.024C-2.25,5.024 0,2.775 0,-0.001C0,-2.775 -2.25,-5.024 -5.024,-5.024" style="fill:rgb(192,164,252);fill-rule:nonzero;"/>
                </g>
                <g transform="matrix(0,-1,-1,0,411.2778,116.9511)">
                    <path d="M-5.024,-5.024C-7.799,-5.024 -10.048,-2.775 -10.048,0C-10.048,2.775 -7.799,5.024 -5.024,5.024C-2.25,5.024 0,2.775 0,0C0,-2.775 -2.25,-5.024 -5.024,-5.024" style="fill:rgb(192,164,252);fill-rule:nonzero;"/>
                </g>
                <g transform="matrix(0,-1,-1,0,426.3637,100.7841)">
                    <path d="M-5.024,-5.024C-7.798,-5.024 -10.048,-2.775 -10.048,-0.001C-10.048,2.775 -7.798,5.024 -5.024,5.024C-2.249,5.024 0,2.775 0,-0.001C0,-2.775 -2.249,-5.024 -5.024,-5.024" style="fill:rgb(192,164,252);fill-rule:nonzero;"/>
                </g>
                <g transform="matrix(-1,0,0,1,773.361,-57.167)">
                    <rect x="384.311" y="261.948" width="4.739" height="33.271" style="fill:rgb(23,186,87);"/>
                </g>
                <g transform="matrix(-1,0,0,1,791.454,-41.803)">
                    <rect x="393.358" y="261.948" width="4.738" height="17.907" style="fill:rgb(23,186,87);"/>
                </g>
                <g transform="matrix(-1,0,0,1,809.547,-53.92)">
                    <rect x="402.404" y="261.948" width="4.739" height="30.024" style="fill:rgb(23,186,87);"/>
                </g>
                <g transform="matrix(-1,0,0,1,827.638,-66.944)">
                    <rect x="411.45" y="261.948" width="4.738" height="43.048" style="fill:rgb(23,186,87);"/>
                </g>
                <g transform="matrix(-1,0,0,1,845.732,-45.313)">
                    <rect x="420.497" y="261.948" width="4.738" height="21.417" style="fill:rgb(23,186,87);"/>
                </g>
                <g transform="matrix(1,0,0,1,434.6787,197.094)">
                    <path d="M0,40.532L-55.207,40.532L-55.207,0" style="fill:none;fill-rule:nonzero;stroke:rgb(1,50,31);stroke-width:1px;stroke-linecap:butt;"/>
                </g>
                <g transform="matrix(-0.707146,0.707068,0.707068,0.707146,198.842293,314.617547)">
                    <path d="M-10.989,-4.551L1.885,-4.551" style="fill:none;fill-rule:nonzero;stroke:rgb(1,50,31);stroke-width:1px;stroke-linejoin:round;"/>
                </g>
                <g transform="matrix(-0.707146,0.707068,0.707068,0.707146,205.617193,314.617547)">
                    <path d="M-10.989,-4.551L1.885,-4.551" style="fill:none;fill-rule:nonzero;stroke:rgb(1,50,31);stroke-width:1px;stroke-linejoin:round;"/>
                </g>
                <g transform="matrix(-0.707146,0.707068,0.707068,0.707146,220.565993,314.617547)">
                    <path d="M-10.989,-4.551L1.885,-4.551" style="fill:none;fill-rule:nonzero;stroke:rgb(1,50,31);stroke-width:1px;stroke-linejoin:round;"/>
                </g>
                <g transform="matrix(1,0,0,1,375.624,274.1852)">
                    <path d="M0,-15.775L8.545,-7.887L0,0" style="fill:none;fill-rule:nonzero;stroke:rgb(1,50,31);stroke-width:1px;stroke-linejoin:round;"/>
                </g>
                <g transform="matrix(1,0,0,1,369.8525,274.1852)">
                    <path d="M0,-15.775L8.545,-7.887L0,0" style="fill:none;fill-rule:nonzero;stroke:rgb(1,50,31);stroke-width:1px;stroke-linejoin:round;"/>
                </g>
                <g transform="matrix(0,-1,-1,0,355.3047,262.335)">
                    <ellipse cx="-3.271" cy="0" rx="3.271" ry="3.271" style="fill:none;stroke:rgb(1,50,31);stroke-width:1px;stroke-linejoin:round;"/>
                </g>
                <g transform="matrix(1,0,0,1,363.4795,266.0518)">
                    <path d="M0,0L9.605,0" style="fill:none;fill-rule:nonzero;stroke:rgb(1,50,31);stroke-width:1px;stroke-linejoin:round;"/>
                </g>
                <g transform="matrix(1,0,0,1,72.9497,257.2863)">
                    <path d="M0,-14.422L-7.812,-7.211L0,0" style="fill:none;fill-rule:nonzero;stroke:rgb(1,50,31);stroke-width:1px;stroke-linejoin:round;"/>
                </g>
                <g transform="matrix(1,0,0,1,78.2261,257.2863)">
                    <path d="M0,-14.422L-7.812,-7.211L0,0" style="fill:none;fill-rule:nonzero;stroke:rgb(1,50,31);stroke-width:1px;stroke-linejoin:round;"/>
                </g>
                <g transform="matrix(1,0,0,1,116.0054,257.2863)">
                    <path d="M0,-14.422L7.798,-7.211L0,0" style="fill:none;fill-rule:nonzero;stroke:rgb(1,50,31);stroke-width:1px;stroke-linejoin:round;"/>
                </g>
                <g transform="matrix(0,-1,-1,0,81.4937,247.086)">
                    <circle cx="-2.956" cy="0.001" r="2.955" style="fill:none;stroke:rgb(1,50,31);stroke-width:1px;stroke-linejoin:round;"/>
                </g>
                <g transform="matrix(1,0,0,1,89.5869,250.042)">
                    <path d="M0,0L11.577,0" style="fill:none;fill-rule:nonzero;stroke:rgb(1,50,31);stroke-width:1px;stroke-linejoin:round;"/>
                </g>
                <g transform="matrix(1,0,0,1,106.0894,250.042)">
                    <path d="M0,0L6.896,0" style="fill:none;fill-rule:nonzero;stroke:rgb(1,50,31);stroke-width:1px;stroke-linejoin:round;"/>
                </g>
                <g transform="matrix(0,-1,-1,0,294.6735,83.8722)">
                    <ellipse cx="-2.869" cy="-0.001" rx="2.869" ry="2.869" style="fill:none;stroke:rgb(1,50,31);stroke-width:1px;stroke-linejoin:round;"/>
                </g>
                <g transform="matrix(-0.624663,0.780894,0.780894,0.624663,248.301347,92.796573)">
                    <path d="M-12.437,-5.978L2.873,-5.978" style="fill:none;fill-rule:nonzero;stroke:rgb(1,50,31);stroke-width:1px;stroke-linejoin:round;"/>
                </g>
                <g transform="matrix(-0.624663,0.780894,0.780894,0.624663,257.865847,92.796573)">
                    <path d="M-12.437,-5.978L2.873,-5.978" style="fill:none;fill-rule:nonzero;stroke:rgb(1,50,31);stroke-width:1px;stroke-linejoin:round;"/>
                </g>
                <g transform="matrix(-0.624623,0.780926,0.780926,0.624623,263.60534,92.796097)">
                    <path d="M-12.437,-5.978L2.874,-5.978" style="fill:none;fill-rule:nonzero;stroke:rgb(1,50,31);stroke-width:1px;stroke-linejoin:round;"/>
                </g>
                <g transform="matrix(1,0,0,1,269.2178,86.9873)">
                    <path d="M0,0L17.734,0" style="fill:none;fill-rule:nonzero;stroke:rgb(1,50,31);stroke-width:1px;stroke-linejoin:round;"/>
                </g>
                <g transform="matrix(0,1,1,0,195.1526,409.7268)">
                    <ellipse cx="2.908" cy="0" rx="2.869" ry="2.908" style="fill:none;stroke:rgb(1,50,31);stroke-width:1px;stroke-linejoin:round;"/>
                </g>
                <g transform="matrix(0.629832,0.776732,0.776732,-0.629832,235.75502,403.691963)">
                    <path d="M-2.849,-5.978L12.543,-5.978" style="fill:none;fill-rule:nonzero;stroke:rgb(1,50,31);stroke-width:1px;stroke-linejoin:round;"/>
                </g>
                <g transform="matrix(0.629832,0.776732,0.776732,-0.629832,229.93862,403.691963)">
                    <path d="M-2.849,-5.978L12.543,-5.978" style="fill:none;fill-rule:nonzero;stroke:rgb(1,50,31);stroke-width:1px;stroke-linejoin:round;"/>
                </g>
                <g transform="matrix(-1,0,0,1,202.9801,412.8809)">
                    <path d="M-17.975,0L0,0" style="fill:none;fill-rule:nonzero;stroke:rgb(1,50,31);stroke-width:1px;stroke-linejoin:round;"/>
                </g>
            </g>
        </g>
    </g>
</svg>
